<svg width="80" height="80" viewBox="0 0 80 80" fill="none" xmlns="http://www.w3.org/2000/svg">
    <path d="M40 73.3334C35.4445 73.3334 31.1389 72.4584 27.0834 70.7084C23.0278 68.9584 19.4861 66.5695 16.4584 63.5417C13.4306 60.514 11.0417 56.9723 9.29169 52.9167C7.54169 48.8612 6.66669 44.5556 6.66669 40.0001C6.66669 35.3334 7.55558 30.9862 9.33335 26.9584C11.1111 22.9306 13.5 19.4167 16.5 16.4167L20 19.9167C17.3889 22.4723 15.3472 25.4723 13.875 28.9167C12.4028 32.3612 11.6667 36.0556 11.6667 40.0001C11.6667 47.8334 14.4306 54.514 19.9584 60.0417C25.4861 65.5695 32.1667 68.3334 40 68.3334C47.8889 68.3334 54.5834 65.5695 60.0834 60.0417C65.5834 54.514 68.3334 47.8334 68.3334 40.0001C68.3334 36.0556 67.6111 32.3612 66.1667 28.9167C64.7222 25.4723 62.6945 22.4723 60.0834 19.9167L63.5834 16.4167C66.5834 19.4167 68.9583 22.9306 70.7083 26.9584C72.4583 30.9862 73.3333 35.3334 73.3333 40.0001C73.3333 44.5556 72.4583 48.8612 70.7083 52.9167C68.9583 56.9723 66.5834 60.514 63.5834 63.5417C60.5834 66.5695 57.0556 68.9584 53 70.7084C48.9445 72.4584 44.6111 73.3334 40 73.3334ZM37.5 43.3334V6.66675H42.5V43.3334H37.5Z"
          fill="white"/>
</svg>
