<svg width="80" height="80" viewBox="0 0 80 80" fill="none" xmlns="http://www.w3.org/2000/svg">
<g clip-path="url(#clip0_1689_798)">
<path d="M36.6667 0V10H43.3333V0H36.6667ZM14.2187 9.4401L9.50521 14.1536L16.5755 21.224L21.2891 16.5104L14.2187 9.4401ZM65.8464 9.50521L58.776 16.5755L63.4896 21.2891L70.5599 14.2187L65.8464 9.50521ZM40 16.6667C27.1528 16.6667 16.6667 27.1528 16.6667 40C16.6667 52.8472 27.1528 63.3333 40 63.3333C52.8472 63.3333 63.3333 52.8472 63.3333 40C63.3333 27.1528 52.8472 16.6667 40 16.6667ZM40 23.3333C49.2442 23.3333 56.6667 30.7558 56.6667 40C56.6667 49.2442 49.2442 56.6667 40 56.6667C30.7558 56.6667 23.3333 49.2442 23.3333 40C23.3333 30.7558 30.7558 23.3333 40 23.3333ZM0 36.6667V43.3333H10V36.6667H0ZM70 36.6667V43.3333H80V36.6667H70ZM16.5104 58.7109L9.4401 65.7812L14.1536 70.4948L21.224 63.4245L16.5104 58.7109ZM63.4245 58.776L58.7109 63.4896L65.7812 70.5599L70.4948 65.8464L63.4245 58.776ZM36.6667 70V80H43.3333V70H36.6667Z" fill="white"/>
</g>
<defs>
<clipPath id="clip0_1689_798">
<rect width="80" height="80" fill="white"/>
</clipPath>
</defs>
</svg>
