<svg width="80" height="80" viewBox="0 0 80 80" fill="none" xmlns="http://www.w3.org/2000/svg">
<path d="M25.3333 8C21.9816 8 18.9304 9.39858 16.7604 11.6198C16.4991 11.8664 16.2903 12.1634 16.1465 12.4927C16.0028 12.8221 15.9271 13.1771 15.924 13.5365C15.9209 13.8958 15.9905 14.2521 16.1285 14.5839C16.2666 14.9157 16.4703 15.2161 16.7273 15.4672C16.9844 15.7183 17.2896 15.9149 17.6245 16.0451C17.9595 16.1753 18.3173 16.2365 18.6764 16.225C19.0356 16.2134 19.3888 16.1294 19.7147 15.978C20.0406 15.8266 20.3325 15.6108 20.5729 15.3438C21.7896 14.0983 23.4531 13.3333 25.3333 13.3333C29.0468 13.3333 32 16.2865 32 20C32 23.7135 29.0468 26.6667 25.3333 26.6667H10.6667C10.3133 26.6617 9.96248 26.727 9.63457 26.8587C9.30665 26.9905 9.0082 27.1861 8.75654 27.4342C8.50489 27.6824 8.30506 27.978 8.16867 28.304C8.03227 28.6301 7.96204 28.9799 7.96204 29.3333C7.96204 29.6867 8.03227 30.0366 8.16867 30.3626C8.30506 30.6887 8.50489 30.9843 8.75654 31.2324C9.0082 31.4805 9.30665 31.6762 9.63457 31.8079C9.96248 31.9397 10.3133 32.005 10.6667 32H25.3333C31.9292 32 37.3333 26.5958 37.3333 20C37.3333 13.4042 31.9292 8 25.3333 8ZM57.3334 13.3333C53.0209 13.3333 49.1093 15.2143 46.4271 18.1927C46.1844 18.4515 45.9957 18.7562 45.8722 19.0888C45.7487 19.4214 45.6928 19.7753 45.7078 20.1299C45.7228 20.4844 45.8084 20.8323 45.9595 21.1533C46.1107 21.4743 46.3244 21.762 46.5881 21.9993C46.8518 22.2367 47.1603 22.4191 47.4954 22.5358C47.8304 22.6525 48.1854 22.7011 48.5396 22.6788C48.8937 22.6566 49.2398 22.5639 49.5577 22.4062C49.8755 22.2485 50.1587 22.0289 50.3906 21.7604C52.1032 19.8588 54.5631 18.6667 57.3334 18.6667C62.5185 18.6667 66.6667 22.8149 66.6667 28C66.6667 33.1851 62.5185 37.3333 57.3334 37.3333H10.6667C10.3133 37.3283 9.96248 37.3936 9.63457 37.5254C9.30665 37.6572 9.0082 37.8528 8.75654 38.1009C8.50489 38.349 8.30506 38.6447 8.16867 38.9707C8.03227 39.2967 7.96204 39.6466 7.96204 40C7.96204 40.3534 8.03227 40.7033 8.16867 41.0293C8.30506 41.3553 8.50489 41.651 8.75654 41.8991C9.0082 42.1472 9.30665 42.3428 9.63457 42.4746C9.96248 42.6064 10.3133 42.6717 10.6667 42.6667H57.3334C65.4016 42.6667 72 36.0682 72 28C72 19.9318 65.4016 13.3333 57.3334 13.3333ZM10.6667 48C10.3133 47.995 9.96248 48.0603 9.63457 48.1921C9.30665 48.3238 9.0082 48.5195 8.75654 48.7676C8.50489 49.0157 8.30506 49.3114 8.16867 49.6374C8.03227 49.9634 7.96204 50.3133 7.96204 50.6667C7.96204 51.0201 8.03227 51.3699 8.16867 51.696C8.30506 52.022 8.50489 52.3176 8.75654 52.5658C9.0082 52.8139 9.30665 53.0095 9.63457 53.1413C9.96248 53.273 10.3133 53.3383 10.6667 53.3333H49.3333C53.0468 53.3333 56 56.2865 56 60C56 63.7135 53.0468 66.6667 49.3333 66.6667C47.4531 66.6667 45.7896 65.9017 44.5729 64.6563C44.3325 64.3892 44.0406 64.1734 43.7147 64.022C43.3888 63.8706 43.0356 63.7866 42.6764 63.775C42.3173 63.7635 41.9595 63.8247 41.6245 63.9549C41.2896 64.0851 40.9844 64.2817 40.7273 64.5328C40.4703 64.7839 40.2666 65.0843 40.1285 65.4161C39.9905 65.7479 39.9209 66.1042 39.924 66.4635C39.9271 66.8229 40.0028 67.1779 40.1465 67.5073C40.2903 67.8366 40.4991 68.1336 40.7604 68.3802C42.9304 70.6014 45.9816 72 49.3333 72C55.9292 72 61.3334 66.5958 61.3334 60C61.3334 53.4042 55.9292 48 49.3333 48H10.6667Z" fill="white"/>
</svg>
